<svg xmlns="http://www.w3.org/2000/svg" viewBox="0 0 64 64">
  <defs>
    <linearGradient id="bg" x1="8" y1="6" x2="56" y2="58" gradientUnits="userSpaceOnUse">
      <stop stop-color="#fb923c"/>
      <stop offset="0.52" stop-color="#0f172a"/>
      <stop offset="1" stop-color="#38bdf8"/>
    </linearGradient>
    <linearGradient id="paper" x1="18" y1="14" x2="46" y2="50" gradientUnits="userSpaceOnUse">
      <stop stop-color="#f8fafc"/>
      <stop offset="1" stop-color="#fed7aa"/>
    </linearGradient>
  </defs>
  <rect width="64" height="64" rx="14" fill="#020617"/>
  <rect x="5" y="5" width="54" height="54" rx="12" fill="url(#bg)" opacity="0.95"/>
  <rect x="9" y="9" width="46" height="46" rx="10" fill="#020617" opacity="0.74"/>
  <path d="M20 15h21l8 8v26H20V15Z" fill="url(#paper)" stroke="#fed7aa" stroke-width="2" stroke-linejoin="round"/>
  <path d="M41 15v8h8" fill="#0f172a" opacity="0.24" stroke="#7dd3fc" stroke-width="2" stroke-linejoin="round"/>
  <path d="M25 29h15M25 36h20M25 43h12" stroke="#0f172a" stroke-width="3" stroke-linecap="round"/>
  <path d="M16 24H9M16 40H9M48 32h7M32 50v7" stroke="#7dd3fc" stroke-width="3" stroke-linecap="round"/>
  <circle cx="9" cy="24" r="3" fill="#7dd3fc"/>
  <circle cx="9" cy="40" r="3" fill="#fdba74"/>
  <circle cx="55" cy="32" r="3" fill="#7dd3fc"/>
  <circle cx="32" cy="57" r="3" fill="#fdba74"/>
</svg>
